<?xml version="1.0" encoding="utf-8"?>
<!-- Generator: Adobe Illustrator 23.0.1, SVG Export Plug-In . SVG Version: 6.00 Build 0)  -->
<svg version="1.1" id="Laag_1" xmlns="http://www.w3.org/2000/svg" xmlns:xlink="http://www.w3.org/1999/xlink" x="0px" y="0px"
	 viewBox="0 0 214.8 87.5" style="enable-background:new 0 0 214.8 87.5;" xml:space="preserve">
<style type="text/css">
	.st0{fill:none;stroke:#F8F098;stroke-width:2;stroke-miterlimit:10;}
</style>
<title>Middel 1</title>
<g>
	<g id="Laag_1-2">
		<path class="st0" d="M182.9,86.1L57.5,86.4c-26,1.5-48.1-12.1-54.6-31.6C-1.8,40.4,3.4,27,5.6,22.2C13.9,9,28.9,2.3,42.8,5.3
			c15.8,3.4,22.8,17.6,23.7,19.4c3.3,8.8-0.4,18.7-8.5,23.4c-8.7,4.7-20.3,1.5-25.5-7.7"/>
		<path class="st0" d="M214.8,58.8L126,59c-18.4,1-34.1-8.6-38.7-22.4c-3.4-10.2,0.3-19.7,1.9-23.1c5.8-9.4,16.5-14.1,26.4-12
			c11.2,2.4,16.2,12.5,16.8,13.8c2.3,6.3-0.2,13.3-6.1,16.6c-6.5,3.3-14.5,0.9-18.1-5.4"/>
	</g>
</g>
</svg>
