<svg xmlns="http://www.w3.org/2000/svg" viewBox="0 0 73.56 87.59"><defs><style>.cls-1{fill:#f8f098;}</style></defs><title>Middel 6</title><g id="Laag_2" data-name="Laag 2"><g id="Laag_1-2" data-name="Laag 1"><path class="cls-1" d="M63.17,0h.22q0,.41,7,.66c1.31.14,2,.47,2,1v.11q-2.42,6.58-5.8,19.91-2.4,6.51-2.41,10a13.73,13.73,0,0,0,3,.22c.71,0,2.31,0,4.81-.11.51.05.76.13.76.22l.22-.11h.22c.11,0,.26.14.44.44v.32c0,.15-.22.3-.66.44a7.69,7.69,0,0,0-1.75-.22c-1,0-2.71,0-5,.11a28,28,0,0,0-3.06-.22,1.13,1.13,0,0,1-.22-.54q0-2.71,2.52-10.61Q66,19.69,69,8.31,70.28,4.65,71,2a75.41,75.41,0,0,0-7.87-.66,1.34,1.34,0,0,1-.44-.87C62.73.33,62.88.18,63.17,0Z"/><path class="cls-1" d="M.78,28.61h.39q0,.72,12.5,1.17c2.35.26,3.52.84,3.52,1.76v.19Q12.89,43.51,6.84,67.28q-4.3,11.61-4.3,17.77a25,25,0,0,0,5.27.39q1.91,0,8.6-.19c.91.09,1.36.22,1.36.39l.39-.2h.39c.2,0,.46.26.79.78v.59c0,.26-.39.52-1.18.78A13.19,13.19,0,0,0,15,87.2c-1.86,0-4.85.06-9,.19A47.56,47.56,0,0,0,.59,87,2.09,2.09,0,0,1,.2,86q0-4.84,4.49-19,1.17-3.31,6.44-23.63,2.35-6.54,3.71-11.33Q12.41,31.58.78,31A2.36,2.36,0,0,1,0,29.39Q0,29.09.78,28.61Z"/><path class="cls-1" d="M34.15,15.51h.22q0,.42,7,.66c1.31.15,2,.47,2,1v.11q-2.4,6.6-5.8,19.91-2.4,6.51-2.4,9.95a13.62,13.62,0,0,0,3,.22c.71,0,2.31,0,4.81-.11.51.06.77.13.77.22l.22-.11h.22c.1,0,.25.15.43.44v.33c0,.14-.22.29-.65.43a7.73,7.73,0,0,0-1.75-.21c-1,0-2.72,0-5,.11A26,26,0,0,0,34,48.22a1.28,1.28,0,0,1-.22-.55q0-2.72,2.52-10.61Q37,35.2,40,23.83c.87-2.45,1.57-4.56,2.08-6.35a74,74,0,0,0-7.88-.65,1.36,1.36,0,0,1-.44-.88C33.71,15.84,33.86,15.7,34.15,15.51Z"/></g></g></svg>