<?xml version="1.0" encoding="utf-8"?>
<!-- Generator: Adobe Illustrator 23.0.1, SVG Export Plug-In . SVG Version: 6.00 Build 0)  -->
<svg version="1.1" id="Laag_1" xmlns="http://www.w3.org/2000/svg" xmlns:xlink="http://www.w3.org/1999/xlink" x="0px" y="0px"
	 viewBox="0 0 230.4 214.6" style="enable-background:new 0 0 230.4 214.6;" xml:space="preserve">
<style type="text/css">
	.st0{fill:#F8F098;}
	.st1{font-family:'BrainFlower';}
	.st2{font-size:80px;}
	.st3{enable-background:new    ;}
	.st4{fill:none;stroke:#F8F098;stroke-width:1.5;stroke-miterlimit:10;}
</style>
<title>Middel 2</title>
<path class="st0" d="M154.8,173c-54.2,0-98.1-43.9-98.1-98.1c0.2-9.8,1.6-19.5,4.3-28.9c2.6-8.5,6.4-16.6,11.3-24.1
	c-20.5,5.7-38.7,17.8-51.8,34.6C15.4,63.2,0,85.9,0,116.6c0,54.2,43.9,98.1,98.1,98.1c33.4,0,64.5-17,82.5-45.1
	C172.2,171.9,163.5,173,154.8,173z"/>
<text transform="matrix(1 0 0 1 123.74 148.79)" class="st0 st1 st2">LUNA</text>
<g class="st3">
	<path class="st4" d="M130.2,92.7h0.2c0.2,0,0.4,0.2,0.6,0.6c0,0.5-0.1,0.8-0.3,0.8l0.2,0.3c0.7,11.4,1.1,20.9,1.1,28.8
		c0.3,2.5,0.5,6,0.5,10.5v13.6h8.4c0.2,0,0.3,0.2,0.5,0.5v0.5c0,0.4-0.9,0.6-2.7,0.6h-7.2c-0.2,0-0.4-0.2-0.6-0.6v-0.9
		c0-0.7,0.1-1.1,0.2-1.1l-0.2-1.9v-11.4c-0.4-13.7-0.8-25.1-1.2-34.2l-0.5-5.2C129.2,93,129.6,92.7,130.2,92.7z"/>
	<path class="st4" d="M154.1,93.8h0.3c0.5,0.3,0.8,0.7,0.8,1.2v0.8c0.9,17,2.1,30.6,3.4,40.9c0.9,7,2.3,10.5,4.2,10.5
		c1.4-0.6,2-1.6,2-3c0-4.1-0.4-14.4-1.2-30.9c0.1-3,0.2-5.9,0.2-8.8v-3.8l-0.2-0.9l0.2-0.3c-0.1-1.4-0.3-2.9-0.5-4.4l0.6-0.5h0.5
		c0.4,0,0.8,1.5,0.9,4.4c0,0.2-0.1,0.3-0.2,0.3c0.1,1.6,0.2,2.7,0.2,3.4v5l-0.2,0.9c0,0.1,0.1,0.2,0.2,0.2c-0.1,1.2-0.2,2.1-0.2,2.7
		v0.6c0.8,18.1,1.2,28.8,1.2,32c-0.3,3-1.6,4.5-4.1,4.5c-2.8,0-4.7-5-5.6-15c-1.1-8.9-2.2-22.1-3.3-39.5L154.1,93.8z"/>
	<path class="st4" d="M189.4,95.5h0.5l0.6,0.6c-0.2,1.1-0.3,2.4-0.3,3.9c0,2.7,1.1,12.4,3.4,29.4l1.4,15.9c-0.2,0.5-0.5,0.8-1.1,0.8
		c-0.5,0-1.5-3.7-3-11.1c-0.9-3.4-2.8-10.7-5.5-22c-1.6-4.5-2.7-8.4-3.4-11.9h-0.2l0.2,1.9c0,2.1-0.2,8.4-0.6,19.1
		c0.2,9.6,0.6,18.2,1.2,25.8v0.3c-0.2,0.4-0.5,0.6-1.1,0.6l-0.6-0.5l0.2-1.4c-0.6-6.8-1-15-1.2-24.7c0.4-10.4,0.6-16.6,0.6-18.8
		c0-0.5-0.1-1.7-0.2-3.6c0.1-0.2,0.2-0.4,0.2-0.5c-0.1-0.4-0.2-0.8-0.2-1.2c0-1.7,0.3-2.5,0.8-2.5c1,0,1.7,1.7,2.3,5.2
		c3.5,11.7,6.2,22,8.1,30.8c0.6,2.3,0.9,3.5,0.9,3.8h0.2c-0.5-5-1.7-14.8-3.6-29.4c-0.2-1.5-0.4-3.5-0.5-6.1c0.1-2,0.2-3.3,0.2-3.9
		L189.4,95.5z"/>
	<path class="st4" d="M211,95.5h0.2c1.5,0.7,2.7,2.5,3.8,5.5c2.9,9,5,20.4,6.4,34.3c0.9,4.5,1.4,8.5,1.4,11.9
		c-0.1,0.3-0.5,0.5-1.1,0.5c-0.4-0.8-1-4.9-1.9-12.4c-0.2-0.8-0.8-4.3-1.6-10.4l-1.2-0.2c-5.6,0.5-8.4,1.1-8.4,1.7v6.1l-1.1,14.5
		c0.2,0.4,0.4,0.7,0.4,1c0,0.2-0.2,0.4-0.7,0.7c-0.9,0-1.4-0.6-1.4-1.7c0.8-11,1.2-17.6,1.2-19.8c-0.1-1.4-0.2-2.9-0.2-4.3
		c0.1-7.5,0.7-15.4,1.9-23.8C209.2,96.7,210,95.5,211,95.5z M211,97.5c-1.5,5.8-2.3,13.4-2.3,22.6c-0.1,0-0.2,1.3-0.2,3.8v0.5
		c3.3-0.9,6.4-1.4,9.5-1.4v-0.2c0-3.2-1.7-10.7-5.2-22.6C212.1,98.7,211.5,97.7,211,97.5z"/>
</g>
<path class="st0" d="M93.1,37.3c0.5,0.1,0.4,0.5,0.4,0.8c0.6,3.8,3,7,6.5,8.5c0.8,0.4,1.7,0.6,2.6,0.7c0.3,0,0.8-0.1,0.8,0.4
	s-0.5,0.4-0.8,0.4c-2.1,0.3-4,1.2-5.7,2.5c-2,1.8-3.2,4.3-3.3,7c-0.1,0.7-0.1,1.5-0.2,2.2c0,0.3,0,0.7-0.4,0.7s-0.3-0.4-0.4-0.7
	c-0.1-2.2-0.7-4.3-1.8-6.2c-1.7-3.1-4-5.3-7.7-5.6c-0.3,0-0.6,0-0.6-0.3s0.4-0.4,0.8-0.4c2.3-0.1,4.5-1,6.3-2.6
	c1.8-1.7,2.9-4.1,3-6.6C92.8,37.9,92.6,37.5,93.1,37.3z"/>
<path class="st0" d="M118.8,78.1c-0.4,0-0.4-0.4-0.4-0.7c-0.1-1.2-0.5-2.4-1.2-3.5c-0.7-1.4-2-2.3-3.6-2.4c-0.3,0-0.6,0-0.6-0.3
	s0.3-0.4,0.6-0.5c3.1-0.6,4.2-1.6,4.7-4.7c0-0.2,0-0.6,0.3-0.6s0.4,0.3,0.4,0.6c0.4,2.4,2.3,4.3,4.7,4.7c0.2,0.1,0.6,0.1,0.6,0.4
	s-0.3,0.4-0.6,0.5c-3.5,1-4.3,2-4.7,5.8C119.1,77.6,119.2,78,118.8,78.1z"/>
<path class="st0" d="M109.3,73.9c-0.1,0.7-0.4,1.3-1.2,1.3c-1-0.1-1.7-1-1.7-1.9c0-0.7,0.4-1.2,1.2-1.2
	C108.6,72.1,109.3,72.9,109.3,73.9z"/>
<path class="st0" d="M77.9,50c-1-0.1-1.7-0.9-1.6-1.9c0-0.8,0.4-1.3,1.2-1.2c0.9,0.1,1.6,0.9,1.6,1.9C79,49.4,78.7,50,77.9,50z"/>
<path class="st0" d="M123.7,54.8c0,0.6-0.3,1.1-0.9,1.1c-0.8,0-1.4-0.6-1.4-1.4c0,0,0,0,0,0c0-0.6,0.3-1.1,1-1
	S123.6,54.1,123.7,54.8z"/>
<path class="st0" d="M144.4,22.8c0.5,0.1,0.4,0.5,0.4,0.8c0.6,3.8,3,7,6.5,8.5c0.8,0.4,1.7,0.6,2.6,0.7c0.3,0,0.9-0.1,0.9,0.4
	s-0.5,0.4-0.8,0.4c-2.1,0.3-4.1,1.2-5.8,2.5c-2,1.8-3.2,4.3-3.3,6.9c-0.1,0.7-0.1,1.5-0.2,2.2c0,0.3,0,0.7-0.4,0.7s-0.4-0.4-0.4-0.7
	c-0.1-2.2-0.7-4.3-1.7-6.2c-1.7-3.1-3.9-5.4-7.7-5.6c-0.3,0-0.6,0-0.6-0.3c0-0.5,0.4-0.4,0.7-0.4c2.3-0.1,4.5-1,6.2-2.6
	c1.8-1.7,2.9-4.1,3-6.6C144.1,23.4,144,23,144.4,22.8z"/>
<path class="st0" d="M73.4,85.1c-0.4,0-0.4-0.4-0.4-0.7c-0.1-1.2-0.5-2.4-1.2-3.5c-0.7-1.4-2-2.3-3.6-2.4c-0.3,0-0.6,0-0.6-0.3
	s0.3-0.4,0.6-0.5c3.1-0.6,4.2-1.6,4.7-4.7c0-0.2,0-0.6,0.3-0.6s0.4,0.3,0.4,0.6c0.4,2.4,2.3,4.3,4.7,4.7c0.2,0,0.6,0.1,0.6,0.4
	s-0.3,0.4-0.6,0.5c-3.5,1-4.3,2-4.7,5.8C73.7,84.6,73.8,85,73.4,85.1z"/>
<path class="st0" d="M81.3,85.2c0,0.6-0.2,1.1-0.9,1.1c-0.8,0-1.4-0.7-1.3-1.4c0-0.6,0.3-1.1,1-1.1S81.2,84.5,81.3,85.2z"/>
<path class="st0" d="M97.5,1.4c0,0.6-0.3,1.1-0.9,1.1c-0.8,0-1.4-0.7-1.3-1.4c0,0,0,0,0,0c0-0.6,0.3-1.1,1-1S97.4,0.7,97.5,1.4z"/>
<path class="st0" d="M105,31.8c-0.4,0-0.4-0.4-0.4-0.7c-0.1-1.2-0.5-2.4-1.2-3.5c-0.7-1.4-2-2.3-3.6-2.4c-0.3,0-0.6,0-0.6-0.4
	s0.3-0.4,0.6-0.5c3.1-0.6,4.2-1.6,4.7-4.7c0-0.3,0-0.6,0.3-0.6s0.4,0.4,0.4,0.6c0.4,2.4,2.3,4.3,4.7,4.7c0.2,0,0.6,0.1,0.6,0.4
	s-0.3,0.4-0.6,0.5c-3.5,1-4.3,2-4.7,5.8C105.3,31.3,105.4,31.7,105,31.8z"/>
<path class="st0" d="M81.3,19.2c-0.4,0-0.4-0.4-0.4-0.7c-0.1-1.3-0.5-2.5-1.2-3.5c-0.7-1.3-2.1-2.2-3.6-2.4c-0.3,0-0.6,0-0.6-0.4
	s0.3-0.4,0.6-0.5c3.1-0.6,4.2-1.6,4.7-4.7c0-0.2,0-0.6,0.3-0.6s0.4,0.3,0.4,0.6c0.4,2.4,2.3,4.3,4.7,4.7c0.2,0.1,0.6,0.1,0.6,0.4
	s-0.3,0.4-0.6,0.5c-3.5,1-4.3,2-4.7,5.8C81.7,18.7,81.8,19.1,81.3,19.2z"/>
<path class="st0" d="M115.6,32.5c0,0.6-0.3,1.1-0.9,1.1c-0.8,0-1.4-0.7-1.3-1.4c0,0,0,0,0,0c0-0.6,0.3-1.1,1-1
	S115.5,31.8,115.6,32.5z"/>
<path class="st0" d="M130.2,22.8c-0.4,0-0.4-0.4-0.4-0.7c-0.1-1.2-0.5-2.4-1.2-3.5c-0.7-1.4-2-2.3-3.6-2.4c-0.3,0-0.6,0-0.6-0.3
	c0-0.4,0.3-0.4,0.6-0.5c3.1-0.6,4.2-1.6,4.7-4.7c0.1-0.3,0-0.6,0.4-0.6s0.4,0.4,0.4,0.6c0.4,2.4,2.3,4.3,4.7,4.7
	c0.2,0,0.6,0.1,0.6,0.4s-0.3,0.4-0.6,0.5c-3.5,1-4.3,2-4.7,5.8C130.6,22.3,130.7,22.7,130.2,22.8z"/>
<path class="st0" d="M155.9,43.8c0,0.6-0.3,1.1-0.9,1.1c-0.8,0-1.4-0.7-1.3-1.4c0,0,0,0,0,0c0-0.6,0.3-1.1,1-1
	S155.8,43.1,155.9,43.8z"/>
<path class="st0" d="M141.3,8.9c0,0.6-0.3,1.1-0.9,1.1c-0.8,0-1.4-0.6-1.4-1.4c0,0,0,0,0,0c0-0.6,0.3-1.1,1-1
	C140.8,7.6,141.1,8.2,141.3,8.9z"/>
</svg>
