<svg id="Laag_1" data-name="Laag 1" xmlns="http://www.w3.org/2000/svg" viewBox="0 0 11.44 12.72"><defs><style>.cls-1{fill:#f8f098;}</style></defs><title>starTwo</title><g id="Laag_1-2" data-name="Laag 1-2"><path class="cls-1" d="M5.74,12.72c-.44,0-.38-.39-.41-.66A8.12,8.12,0,0,0,4.16,8.52,4.52,4.52,0,0,0,.6,6.12c-.26,0-.57,0-.6-.35s.32-.41.61-.46C3.74,4.73,4.79,3.68,5.33.59c0-.25,0-.57.35-.59s.38.35.45.62A5.54,5.54,0,0,0,10.85,5.3c.25,0,.56.07.59.39s-.34.38-.61.46c-3.51,1-4.34,2-4.72,5.79C6.08,12.24,6.19,12.63,5.74,12.72Z"/></g></svg>