<svg xmlns="http://www.w3.org/2000/svg" viewBox="0 0 18.06 24.7"><defs><style>.cls-1{fill:#f8f098;}</style></defs><title>Middel 6</title><g id="Laag_2" data-name="Laag 2"><g id="Laag_1-2" data-name="Laag 1"><path class="cls-1" d="M12.36,24.7c-.44-.05-.38-.39-.41-.67a8.2,8.2,0,0,0-1.16-3.5,4.58,4.58,0,0,0-3.57-2.44c-.26,0-.57,0-.6-.35s.32-.4.61-.46c3.13-.58,4.18-1.63,4.72-4.71.05-.26,0-.57.35-.6s.39.35.45.62a5.55,5.55,0,0,0,4.72,4.69c.25,0,.56.06.59.38s-.34.39-.61.47c-3.51,1-4.34,2-4.72,5.78C12.7,24.21,12.81,24.6,12.36,24.7Z"/><path class="cls-1" d="M2.84,20.45c0,.74-.36,1.27-1.16,1.31A1.85,1.85,0,0,1,0,19.83c.05-.75.41-1.25,1.21-1.26A1.88,1.88,0,0,1,2.84,20.45Z"/><path class="cls-1" d="M17.32,1.37c0,.64-.26,1.06-.89,1.11a1.38,1.38,0,0,1-1.34-1.43c0-.64.28-1.1,1-1S17.19.69,17.32,1.37Z"/></g></g></svg>